<?xml version="1.0" standalone="no"?>
<!DOCTYPE svg PUBLIC "-//W3C//DTD SVG 20010904//EN"
 "http://www.w3.org/TR/2001/REC-SVG-20010904/DTD/svg10.dtd">
<svg version="1.0" xmlns="http://www.w3.org/2000/svg"
 width="200.000000pt" height="200.000000pt" viewBox="0 0 200.000000 200.000000"
 preserveAspectRatio="xMidYMid meet">
<metadata>
Created by potrace 1.11, written by Peter Selinger 2001-2013
</metadata>
<g transform="translate(0.000000,200.000000) scale(0.100000,-0.100000)"
fill="#000000" stroke="none">
<path d="M151 1613 c-5 -27 -12 -73 -16 -103 -3 -30 -12 -95 -20 -145 -32
-199 -61 -405 -79 -548 -7 -59 -18 -113 -24 -119 -7 -7 -12 -22 -12 -35 0 -25
31 -34 110 -30 l45 2 7 74 c7 78 25 158 39 166 15 10 21 -18 28 -128 l6 -112
56 -2 c31 -1 61 2 67 6 9 5 8 47 -3 161 -8 85 -18 163 -21 173 -3 10 0 33 7
50 14 36 46 112 59 142 45 99 63 157 51 165 -6 3 -36 3 -67 0 l-58 -5 -19 -60
c-26 -77 -55 -143 -68 -151 -13 -7 -8 86 10 191 14 88 38 256 45 313 l4 42
-68 0 -68 0 -11 -47z"/>
<path d="M1028 1318 c-9 -9 -20 -34 -23 -55 -4 -21 -13 -56 -20 -78 -7 -22
-19 -62 -28 -90 -9 -27 -29 -93 -45 -145 -16 -52 -40 -131 -52 -175 -12 -44
-26 -91 -31 -104 -7 -17 -6 -26 2 -31 14 -9 103 -10 116 -1 5 3 18 33 29 66
14 45 24 61 40 63 34 5 46 -19 35 -69 -12 -54 -6 -62 55 -65 79 -5 84 2 84
114 0 53 7 178 15 277 8 99 15 208 15 242 l0 62 -87 3 c-72 2 -91 0 -105 -14z
m57 -356 c-15 -71 -24 -86 -49 -76 -26 10 -11 93 42 234 13 37 20 -98 7 -158z"/>
<path d="M1408 1332 c-67 -3 -72 -10 -82 -92 -10 -82 -35 -245 -52 -331 -8
-41 -16 -110 -17 -152 -2 -72 0 -78 26 -104 26 -27 32 -28 120 -28 83 0 97 3
130 25 40 27 61 76 72 165 6 53 28 188 50 320 8 44 17 105 21 137 l6 56 -57 4
c-31 1 -61 0 -66 -3 -16 -9 -39 -98 -39 -148 0 -25 -7 -73 -15 -106 -8 -33
-14 -77 -15 -98 0 -21 -6 -68 -14 -105 -8 -37 -17 -84 -21 -105 -6 -34 -9 -38
-33 -35 -22 2 -27 8 -25 28 2 41 23 170 39 241 8 37 14 84 14 105 0 22 7 64
15 94 16 59 20 127 8 132 -5 2 -34 2 -65 0z"/>
<path d="M1771 1328 c-14 -5 -20 -26 -29 -95 -7 -48 -17 -115 -22 -148 -5 -33
-16 -105 -25 -160 -9 -55 -22 -140 -30 -190 -8 -49 -19 -119 -25 -155 -5 -36
-14 -94 -20 -129 -6 -35 -8 -66 -6 -69 6 -6 138 -3 145 3 3 4 17 81 45 270 8
50 17 101 20 115 4 14 10 58 15 98 10 83 22 102 61 102 36 0 52 21 54 68 1 36
0 37 -39 42 l-40 5 3 44 c4 60 23 97 47 94 11 -1 32 2 48 9 24 9 27 16 27 54
l0 43 -106 3 c-58 2 -113 0 -123 -4z"/>
<path d="M506 1218 c-9 -62 -26 -174 -36 -248 -11 -74 -25 -164 -31 -200 -6
-36 -12 -81 -12 -100 -2 -35 -2 -35 46 -38 59 -4 77 9 77 57 1 56 34 212 45
212 14 0 23 -69 24 -173 1 -97 2 -97 76 -96 59 0 72 11 78 65 2 26 12 89 20
138 9 50 23 142 32 205 9 63 23 150 32 192 8 43 12 82 8 88 -7 11 -115 14
-115 3 -1 -93 -40 -256 -58 -239 -4 4 -9 60 -12 124 l-5 117 -76 3 -75 3 -18
-113z"/>
</g>
</svg>
